<svg width="68" height="61" viewBox="0 0 68 61" fill="none" xmlns="http://www.w3.org/2000/svg">
<g filter="url(#filter0_d)">
<path d="M33.9995 49.1417L55.9776 27.0324L39.9082 10.8582L33.9995 16.8045L28.0908 10.8582L12.0224 27.0324L33.9995 49.1417ZM19.3416 27.0324L28.0908 18.229L30.3399 20.492L23.8397 27.0324L33.9995 37.2562L44.1603 27.0324L37.6601 20.492L39.9082 18.229L48.6574 27.0324L33.9985 41.7823L19.3416 27.0324ZM36.84 27.0324L33.9995 29.8906L31.1589 27.0324L33.9995 24.1743L36.84 27.0324Z" fill="#E60404"/>
<path style="mix-blend-mode:multiply" opacity="0.42" d="M36.84 27.0274L33.9995 24.1692L37.6601 20.4869L44.1603 27.0274H36.84Z" fill="url(#paint0_linear)"/>
<path style="mix-blend-mode:multiply" opacity="0.23" d="M28.0908 10.8593L33.9995 16.8046L30.3399 20.4869L28.0908 18.2249V10.8593Z" fill="url(#paint1_linear)"/>
</g>
<defs>
<filter id="filter0_d" x="6.35074" y="10.8582" width="55.2985" height="49.6269" filterUnits="userSpaceOnUse" color-interpolation-filters="sRGB">
<feFlood flood-opacity="0" result="BackgroundImageFix"/>
<feColorMatrix in="SourceAlpha" type="matrix" values="0 0 0 0 0 0 0 0 0 0 0 0 0 0 0 0 0 0 127 0" result="hardAlpha"/>
<feOffset dy="5.67164"/>
<feGaussianBlur stdDeviation="2.83582"/>
<feComposite in2="hardAlpha" operator="out"/>
<feColorMatrix type="matrix" values="0 0 0 0 0 0 0 0 0 0 0 0 0 0 0 0 0 0 0.25 0"/>
<feBlend mode="normal" in2="BackgroundImageFix" result="effect1_dropShadow"/>
<feBlend mode="normal" in="SourceGraphic" in2="effect1_dropShadow" result="shape"/>
</filter>
<linearGradient id="paint0_linear" x1="35.9513" y1="22.4488" x2="38.172" y2="24.6568" gradientUnits="userSpaceOnUse">
<stop stop-opacity="0.5"/>
<stop offset="0.09" stop-color="#0D0D0D" stop-opacity="0.53"/>
<stop offset="0.26" stop-color="#303030" stop-opacity="0.59"/>
<stop offset="0.48" stop-color="#686868" stop-opacity="0.7"/>
<stop offset="0.76" stop-color="#B4B4B4" stop-opacity="0.85"/>
<stop offset="1" stop-color="white"/>
</linearGradient>
<linearGradient id="paint1_linear" x1="32.2199" y1="18.6952" x2="30.0064" y2="16.4965" gradientUnits="userSpaceOnUse">
<stop stop-color="#231F20" stop-opacity="0.5"/>
<stop offset="1" stop-color="white"/>
</linearGradient>
</defs>
</svg>
